# xmcd CD database file
#
# Track frame offsets:
#	150
#	9057
#	25000
#	41065
#	55165
#	69962
#	81287
#	96437
#	112630
#	128742
#	140880
#	152280
#	170832
#	186057
#	197822
#
# Disc length: 2984 seconds
#
# Revision: 2
# Processed by: cddbd v1.4PL0 Copyright (c) Steve Scherf et al.
# Submitted via: CDex 1.50beta9
#
DISCID=bc0ba60f
DTITLE=The Whiteley Brothers - Bluesology
DYEAR=1992
DGENRE=Blues
TTITLE0=Before This Time
TTITLE1=Crazy Blues
TTITLE2=M&O Blues
TTITLE3=Memphis Jug Blues
TTITLE4=When The Train Comes Along
TTITLE5=Custard Pie
TTITLE6=Got Me Worrying
TTITLE7=Feel Like Going Home
TTITLE8=Crawdad Hole
TTITLE9=In The Night
TTITLE10=Sugar Sweet
TTITLE11=Sneaking Around
TTITLE12=Don't Start Crying Now
TTITLE13=We Don't Talk
TTITLE14=Wee Wee Baby
EXTD=YEAR: 1992
EXTT0=
EXTT1=
EXTT2=
EXTT3=
EXTT4=
EXTT5=
EXTT6=
EXTT7=
EXTT8=
EXTT9=
EXTT10=
EXTT11=
EXTT12=
EXTT13=
EXTT14=
PLAYORDER=
